<svg xmlns="http://www.w3.org/2000/svg" width="450" height="450" fill="none" viewBox="0 0 450 450">
  <g clip-path="url(#a)">
    <path fill="#161616" d="M0 0h450v450H0z"/>
    <path fill="#212121" d="m410.332 489.952 180.337-37.665c.866-.181 1.505-.887 1.543-1.771.64-14.962 1.071-140.628-160.242-200.173-171.681-63.372-279.99-97.939-312.252-194.725C90.878-30.902 13.239-98.086-2.908-111.366c-1.255-1.033-3.06-.139-3.127 1.486l-23.953 574.864a2 2 0 0 0 1.893 2.08l437.914 22.928a2.01 2.01 0 0 0 .513-.04Z"/>
    <path stroke="url(#b)" stroke-linecap="round" stroke-width="61" d="m241.098 351.692-126.69-126.69a1.853 1.853 0 0 1 0-2.621L237.934 98.854c1.168-1.168 3.164-.34 3.164 1.311v123.526m95.037-57.841v115.683"/>
    <path fill="#141414" d="m371.526 576.223 180.336-37.665c.867-.181 1.506-.887 1.544-1.771.64-14.962 1.071-140.628-160.242-200.173-171.681-63.372-279.99-97.939-312.252-194.725C52.072 55.369-25.567-11.815-41.714-25.095c-1.256-1.033-3.06-.138-3.128 1.486l-23.953 574.864a2 2 0 0 0 1.894 2.08l437.914 22.928c.172.009.344-.004.513-.04Z" opacity=".4"/>
  </g>
  <defs>
    <linearGradient id="b" x1="113.865" x2="336.135" y1="98.308" y2="351.692" gradientUnits="userSpaceOnUse">
      <stop stop-color="#FF9C07"/>
      <stop offset="1" stop-color="#FF5C00"/>
    </linearGradient>
    <clipPath id="a">
      <path fill="#fff" d="M0 0h450v450H0z"/>
    </clipPath>
  </defs>
</svg>
